<svg xmlns="http://www.w3.org/2000/svg" width="223.34" height="35" viewBox="0 0 223.34 35"><rect class="svg__rect" x="0" y="0" width="115.31" height="35" fill="#EA4560"/><rect class="svg__rect" x="113.31" y="0" width="110.03" height="35" fill="#3BC4F3"/><path class="svg__text" d="M15.69 22L14.22 22L14.22 13.47L16.14 13.47L18.60 20.01L21.06 13.47L22.97 13.47L22.97 22L21.49 22L21.49 19.19L21.64 15.43L19.12 22L18.06 22L15.55 15.43L15.69 19.19L15.69 22ZM28.49 22L26.95 22L30.17 13.47L31.50 13.47L34.73 22L33.18 22L32.49 20.01L29.18 20.01L28.49 22ZM30.83 15.28L29.60 18.82L32.07 18.82L30.83 15.28ZM41.14 22L38.69 22L38.69 13.47L41.21 13.47Q42.34 13.47 43.21 13.97Q44.09 14.48 44.57 15.40Q45.05 16.33 45.05 17.52L45.05 17.52L45.05 17.95Q45.05 19.16 44.57 20.08Q44.08 21.00 43.19 21.50Q42.30 22 41.14 22L41.14 22ZM40.17 14.66L40.17 20.82L41.14 20.82Q42.30 20.82 42.93 20.09Q43.55 19.36 43.56 17.99L43.56 17.99L43.56 17.52Q43.56 16.13 42.96 15.40Q42.35 14.66 41.21 14.66L41.21 14.66L40.17 14.66ZM55.09 22L49.51 22L49.51 13.47L55.05 13.47L55.05 14.66L51.00 14.66L51.00 17.02L54.50 17.02L54.50 18.19L51.00 18.19L51.00 20.82L55.09 20.82L55.09 22ZM66.65 22L64.68 13.47L66.15 13.47L67.47 19.88L69.10 13.47L70.34 13.47L71.96 19.89L73.27 13.47L74.74 13.47L72.77 22L71.35 22L69.73 15.77L68.07 22L66.65 22ZM80.38 22L78.90 22L78.90 13.47L80.38 13.47L80.38 22ZM86.87 14.66L84.23 14.66L84.23 13.47L91.00 13.47L91.00 14.66L88.34 14.66L88.34 22L86.87 22L86.87 14.66ZM96.24 22L94.75 22L94.75 13.47L96.24 13.47L96.24 17.02L100.05 17.02L100.05 13.47L101.53 13.47L101.53 22L100.05 22L100.05 18.21L96.24 18.21L96.24 22Z" fill="#FFFFFF"/><path class="svg__text" d="M126.91 21.24L126.91 21.24L127.69 19.49Q128.25 19.86 129.00 20.09Q129.74 20.32 130.46 20.32L130.46 20.32Q131.83 20.32 131.83 19.64L131.83 19.64Q131.83 19.28 131.44 19.11Q131.05 18.93 130.19 18.74L130.19 18.74Q129.24 18.53 128.60 18.30Q127.97 18.06 127.51 17.55Q127.06 17.03 127.06 16.16L127.06 16.16Q127.06 15.39 127.48 14.77Q127.90 14.15 128.73 13.79Q129.57 13.43 130.77 13.43L130.77 13.43Q131.60 13.43 132.41 13.62Q133.21 13.80 133.83 14.17L133.83 14.17L133.09 15.93Q131.89 15.28 130.76 15.28L130.76 15.28Q130.05 15.28 129.73 15.49Q129.41 15.70 129.41 16.04L129.41 16.04Q129.41 16.37 129.79 16.54Q130.18 16.71 131.03 16.89L131.03 16.89Q131.99 17.10 132.62 17.33Q133.25 17.56 133.71 18.07Q134.17 18.58 134.17 19.46L134.17 19.46Q134.17 20.21 133.75 20.83Q133.33 21.44 132.49 21.80Q131.65 22.17 130.45 22.17L130.45 22.17Q129.43 22.17 128.47 21.92Q127.51 21.67 126.91 21.24ZM140.17 22L137.74 22L141.45 13.60L143.79 13.60L147.51 22L145.04 22L144.38 20.37L140.83 20.37L140.17 22ZM142.60 15.93L141.52 18.61L143.68 18.61L142.60 15.93ZM153.99 22L151.66 22L151.66 13.60L153.62 13.60L157.33 18.07L157.33 13.60L159.65 13.60L159.65 22L157.70 22L153.99 17.52L153.99 22ZM164.39 17.80L164.39 17.80Q164.39 16.54 164.99 15.54Q165.58 14.55 166.64 13.99Q167.69 13.43 169.01 13.43L169.01 13.43Q170.16 13.43 171.08 13.84Q172.01 14.25 172.62 15.02L172.62 15.02L171.11 16.39Q170.29 15.40 169.13 15.40L169.13 15.40Q168.44 15.40 167.91 15.70Q167.38 16 167.08 16.54Q166.78 17.09 166.78 17.80L166.78 17.80Q166.78 18.51 167.08 19.05Q167.38 19.60 167.91 19.90Q168.44 20.20 169.13 20.20L169.13 20.20Q170.29 20.20 171.11 19.22L171.11 19.22L172.62 20.58Q172.01 21.35 171.09 21.76Q170.16 22.17 169.01 22.17L169.01 22.17Q167.69 22.17 166.64 21.61Q165.58 21.05 164.99 20.05Q164.39 19.06 164.39 17.80ZM178.95 15.48L176.37 15.48L176.37 13.60L183.89 13.60L183.89 15.48L181.32 15.48L181.32 22L178.95 22L178.95 15.48ZM188.19 18.26L188.19 18.26L188.19 13.60L190.57 13.60L190.57 18.19Q190.57 20.20 192.16 20.20L192.16 20.20Q193.74 20.20 193.74 18.19L193.74 18.19L193.74 13.60L196.09 13.60L196.09 18.26Q196.09 20.13 195.05 21.15Q194.01 22.17 192.14 22.17L192.14 22.17Q190.26 22.17 189.23 21.15Q188.19 20.13 188.19 18.26ZM203.37 22L201.17 22L201.17 13.60L203.13 13.60L206.08 18.45L208.97 13.60L210.92 13.60L210.94 22L208.76 22L208.74 17.55L206.58 21.17L205.52 21.17L203.37 17.67L203.37 22Z" fill="#FFFFFF" x="126.31"/></svg>