<svg xmlns="http://www.w3.org/2000/svg" width="202.74" height="35" viewBox="0 0 202.74 35"><rect class="svg__rect" x="0" y="0" width="115.31" height="35" fill="#EA4560"/><rect class="svg__rect" x="113.31" y="0" width="89.43" height="35" fill="#3BC4F3"/><path class="svg__text" d="M15.69 22L14.22 22L14.22 13.47L16.14 13.47L18.60 20.01L21.06 13.47L22.97 13.47L22.97 22L21.49 22L21.49 19.19L21.64 15.43L19.12 22L18.06 22L15.55 15.43L15.69 19.19L15.69 22ZM28.49 22L26.95 22L30.17 13.47L31.50 13.47L34.73 22L33.18 22L32.49 20.01L29.18 20.01L28.49 22ZM30.83 15.28L29.60 18.82L32.07 18.82L30.83 15.28ZM41.14 22L38.69 22L38.69 13.47L41.21 13.47Q42.34 13.47 43.21 13.97Q44.09 14.48 44.57 15.40Q45.05 16.33 45.05 17.52L45.05 17.52L45.05 17.95Q45.05 19.16 44.57 20.08Q44.08 21.00 43.19 21.50Q42.30 22 41.14 22L41.14 22ZM40.17 14.66L40.17 20.82L41.14 20.82Q42.30 20.82 42.93 20.09Q43.55 19.36 43.56 17.99L43.56 17.99L43.56 17.52Q43.56 16.13 42.96 15.40Q42.35 14.66 41.21 14.66L41.21 14.66L40.17 14.66ZM55.09 22L49.51 22L49.51 13.47L55.05 13.47L55.05 14.66L51.00 14.66L51.00 17.02L54.50 17.02L54.50 18.19L51.00 18.19L51.00 20.82L55.09 20.82L55.09 22ZM66.65 22L64.68 13.47L66.15 13.47L67.47 19.88L69.10 13.47L70.34 13.47L71.96 19.89L73.27 13.47L74.74 13.47L72.77 22L71.35 22L69.73 15.77L68.07 22L66.65 22ZM80.38 22L78.90 22L78.90 13.47L80.38 13.47L80.38 22ZM86.87 14.66L84.23 14.66L84.23 13.47L91.00 13.47L91.00 14.66L88.34 14.66L88.34 22L86.87 22L86.87 14.66ZM96.24 22L94.75 22L94.75 13.47L96.24 13.47L96.24 17.02L100.05 17.02L100.05 13.47L101.53 13.47L101.53 22L100.05 22L100.05 18.21L96.24 18.21L96.24 22Z" fill="#FFFFFF"/><path class="svg__text" d="M129.88 22L127.50 22L127.50 13.60L131.34 13.60Q132.48 13.60 133.32 13.98Q134.16 14.35 134.62 15.06Q135.07 15.76 135.07 16.71L135.07 16.71Q135.07 17.62 134.65 18.30Q134.22 18.98 133.43 19.36L133.43 19.36L135.24 22L132.70 22L131.17 19.77L129.88 19.77L129.88 22ZM129.88 15.47L129.88 17.93L131.20 17.93Q131.93 17.93 132.30 17.61Q132.67 17.29 132.67 16.71L132.67 16.71Q132.67 16.12 132.30 15.79Q131.93 15.47 131.20 15.47L131.20 15.47L129.88 15.47ZM141.28 22L138.85 22L142.56 13.60L144.91 13.60L148.62 22L146.15 22L145.49 20.37L141.94 20.37L141.28 22ZM143.72 15.93L142.63 18.61L144.79 18.61L143.72 15.93ZM154.90 18.95L151.70 13.60L154.20 13.60L156.20 16.94L158.19 13.60L160.49 13.60L157.28 18.99L157.28 22L154.90 22L154.90 18.95ZM170.96 22L164.58 22L164.58 13.60L166.95 13.60L166.95 20.11L170.96 20.11L170.96 22ZM177.76 22L175.38 22L175.38 13.60L177.76 13.60L177.76 22ZM187.47 22L182.93 22L182.93 13.60L187.23 13.60Q188.84 13.60 189.68 14.19Q190.52 14.79 190.52 15.79L190.52 15.79Q190.52 16.39 190.23 16.87Q189.93 17.34 189.39 17.62L189.39 17.62Q190.11 17.87 190.52 18.41Q190.93 18.94 190.93 19.70L190.93 19.70Q190.93 20.80 190.04 21.40Q189.15 22 187.47 22L187.47 22ZM185.29 18.58L185.29 20.28L187.28 20.28Q188.53 20.28 188.53 19.43L188.53 19.43Q188.53 18.58 187.28 18.58L187.28 18.58L185.29 18.58ZM185.29 15.31L185.29 16.94L186.92 16.94Q188.12 16.94 188.12 16.12L188.12 16.12Q188.12 15.31 186.92 15.31L186.92 15.31L185.29 15.31Z" fill="#FFFFFF" x="126.31"/></svg>